<svg width="183.516" height="40.703" viewBox="0 0 183.515625 40.703125" xmlns="http://www.w3.org/2000/svg"><defs><linearGradient x1="50%" y1="0%" x2="0%" y2="100%" id="a"><stop stop-color="#8ADD6D" offset="0%"/><stop stop-color="#60B044" offset="100%"/></linearGradient><filter x="-50%" y="-50%" width="200%" height="200%" filterUnits="objectBoundingBox" id="b"><feOffset dy="-1" in="SourceAlpha" result="shadowOffsetOuter1"/><feGaussianBlur in="shadowOffsetOuter1" result="shadowBlurOuter1"/><feColorMatrix values="0 0 0 0 0 0 0 0 0 0 0 0 0 0 0 0 0 0 0.35 0" in="shadowBlurOuter1" result="shadowMatrixOuter1"/><feMerge><feMergeNode in="shadowMatrixOuter1"/><feMergeNode in="SourceGraphic"/></feMerge></filter></defs><g fill="none" fill-rule="evenodd"><rect stroke="#5CA941" fill="url(#a)" width="182.516" height="39.703" rx="3"/><path xmlns="http://www.w3.org/2000/svg" d="m 1517.2577,648.8839 q 18.0803,84.375 -4.0179,204.9107 -87.3884,445.9822 -567.52237,445.9822 H 901.521 q -25.11161,0 -44.19643,16.5737 -19.08482,16.5736 -24.10714,42.6897 l -4.01786,19.0848 -55.24553,347.5446 -2.00893,15.067 q -5.02232,26.1161 -24.60938,42.6897 Q 727.74868,1800 702.63707,1800 H 450.51658 q -21.0938,0 -33.1474,-15.067 -12.0535,-15.0669 -9.0401,-36.1607 9.0401,-56.25 26.6183,-168.75 17.5781,-112.5 26.6183,-168.75 9.0401,-56.25 27.1205,-168.2477 18.0804,-111.9978 27.1205,-168.2478 5.0224,-37.1652 43.192,-37.1652 H 690.5835 q 133.59375,2.0089 237.05357,-21.0938 175.78133,-39.1741 288.28133,-144.6428 102.4553,-95.4241 155.6919,-247.0982 24.1072,-70.3125 35.1563,-133.5938 1.0044,-6.0268 2.5111,-7.5335 1.5067,-1.5066 3.5157,-1.0044 2.0089,0.5022 6.0268,3.5156 79.3526,59.2634 98.4375,162.7232 z M 1344.4898,365.625 q 0,107.4777 -46.2054,237.0536 -80.3571,234.0401 -303.34822,316.4062 -113.50447,40.1786 -253.125,42.1875 0,1.0045 -90.40178,1.0045 l -90.40179,-1.0045 q -100.44643,0 -118.52683,96.4286 -2.0089,8.0357 -85.3794,532.3661 -1.0045,10.0446 -12.0536,10.0446 H 48.730785 q -22.0982,0 -36.6629,-16.5736 -14.5647001,-16.5737 -11.55130009,-38.6719 L 233.55228,67.2991 q 5.0223,-29.1295 27.6227,-48.2143 Q 283.77548,0 312.90498,0 h 600.66959 q 34.15179,0 97.93533,13.058 63.7835,13.0581 111.9978,32.1429 107.4776,41.183 164.2299,123.5491 56.7522,82.3661 56.7522,196.875 z" fill="#FFF" transform="matrix(.014 0 0 .014 10 8)"/><text fill="#fff" filter="url(#b)" font-family="Helvetica, arial, freesans, clean, sans-serif" font-size="14" font-weight="bold"><tspan x="38" y="24" fill="#FFF">Support via PayPal</tspan></text></g></svg>